<svg xmlns="http://www.w3.org/2000/svg" xmlns:xlink="http://www.w3.org/1999/xlink" width="600" height="700" viewBox="0 0 600 700">
  <defs>
    <clipPath id="clip-web-tech-stack">
      <rect width="600" height="700"/>
    </clipPath>
  </defs>
  <g id="web-tech-stack" clip-path="url(#clip-web-tech-stack)">
    <g id="Group_3" data-name="Group 3" transform="translate(-5053 156.121)" opacity="0.2">
      <path id="path28" d="M676.5-146.021h-1.527V-479.595H676.5v333.574" transform="translate(4522.311 592.141)"/>
      <path id="path30" d="M708.15-146.021h-1.525V-479.595h1.525v333.574" transform="translate(4539.836 592.141)"/>
      <path id="path32" d="M739.8-146.021h-1.525V-479.595H739.8v333.574" transform="translate(4557.361 592.141)"/>
      <path id="path34" d="M771.45-146.021h-1.527V-479.595h1.527v333.574" transform="translate(4574.886 592.141)"/>
      <path id="path36" d="M803.1-146.021h-1.525V-479.595H803.1v333.574" transform="translate(4592.411 592.141)"/>
      <path id="path38" d="M834.748-146.021h-1.525V-479.595h1.525v333.574" transform="translate(4609.936 592.141)"/>
      <path id="path40" d="M980.815-450.336H647.244v-1.527H980.815v1.527" transform="translate(4506.956 607.496)"/>
      <path id="path42" d="M980.815-418.688H647.244v-1.525H980.815v1.525" transform="translate(4506.956 625.022)"/>
      <path id="path44" d="M980.815-387.038H647.244v-1.525H980.815v1.525" transform="translate(4506.956 642.547)"/>
      <path id="path46" d="M980.815-355.387H647.244v-1.527H980.815v1.527" transform="translate(4506.956 660.071)"/>
      <path id="path48" d="M980.815-323.738H647.244v-1.527H980.815v1.527" transform="translate(4506.956 677.596)"/>
      <path id="path50" d="M980.815-292.089H647.244v-1.525H980.815v1.525" transform="translate(4506.956 695.121)"/>
    </g>
    <g id="Group_6" data-name="Group 6" transform="translate(-5272.532 -6)" opacity="0.15">
      <path id="path490" d="M605.319-582.268q-1.306-1.052-2.634-2.055L455.536-437.172q1,1.328,2.053,2.632l147.73-147.728" transform="translate(5152.144 656.329)"/>
      <path id="path492" d="M573.75-596.783c-1.219-.36-2.447-.691-3.677-1.009L442.067-469.785c.316,1.23.648,2.458,1.011,3.677L573.75-596.783" transform="translate(5147.766 651.95)"/>
      <path id="path494" d="M596.407-588.065q-1.458-.9-2.938-1.749L450.044-446.39q.848,1.481,1.747,2.938L596.407-588.065" transform="translate(5150.359 654.543)"/>
      <path id="path496" d="M585.95-592.938q-1.627-.737-3.274-1.413L445.506-457.181q.678,1.646,1.415,3.272L585.95-592.938" transform="translate(5148.883 653.069)"/>
      <path id="path498" d="M559.425-599.377c-1.39-.2-2.783-.364-4.178-.507L439.974-484.612c.143,1.4.309,2.79.509,4.178L559.425-599.377" transform="translate(5147.085 651.27)"/>
      <path id="path500" d="M611.643-576.8c-.392-.392-.792-.77-1.185-1.156L461.906-429.4c.383.4.765.793,1.155,1.187s.792.77,1.187,1.155L612.8-575.61c-.385-.4-.767-.793-1.157-1.187" transform="translate(5154.214 658.399)"/>
      <path id="path502" d="M542.311-600.282q-2.457.053-4.91.223l-97.6,97.6q-.167,2.454-.221,4.91L542.311-600.282" transform="translate(5146.956 651.141)"/>
      <path id="path504" d="M441.492-518.989l79.377-79.377q-3.175.713-6.311,1.624L443.116-525.3q-.912,3.132-1.624,6.311" transform="translate(5147.579 651.764)"/>
      <path id="path506" d="M623.093-514.369q.167-2.454.223-4.91L520.58-416.544q2.454-.05,4.91-.223l97.6-97.6" transform="translate(5173.286 677.471)"/>
      <path id="path508" d="M627.017-528.114c-.143-1.4-.309-2.79-.507-4.178L507.567-413.349c1.389.2,2.783.364,4.178.507L627.017-528.114" transform="translate(5169.056 673.241)"/>
      <path id="path510" d="M487.69-589.336A105.281,105.281,0,0,0,466.761-573.1a105.3,105.3,0,0,0-16.24,20.929l37.168-37.167" transform="translate(5150.514 654.699)"/>
      <path id="path512" d="M614.044-497.256q.912-3.132,1.624-6.311L536.292-424.19q3.175-.713,6.311-1.624l71.441-71.443" transform="translate(5178.394 682.578)"/>
      <path id="path514" d="M559.117-443.575a105.213,105.213,0,0,0,20.927-16.238,105.3,105.3,0,0,0,16.24-20.929l-37.167,37.167" transform="translate(5185.813 689.997)"/>
      <path id="path516" d="M623.548-559.734q-.848-1.481-1.747-2.938L477.187-418.058q1.455.9,2.938,1.749L623.548-559.734" transform="translate(5159.181 663.366)"/>
      <path id="path518" d="M618.895-568.113q-1-1.328-2.053-2.632L469.113-423.017q1.3,1.052,2.632,2.053L618.895-568.113" transform="translate(5156.557 660.742)"/>
      <path id="path520" d="M627.926-539.939c-.318-1.231-.648-2.457-1.011-3.677L496.243-412.942c1.219.36,2.445.691,3.677,1.009L627.926-539.939" transform="translate(5165.375 669.56)"/>
      <path id="path522" d="M626.635-550.395q-.676-1.646-1.413-3.272L486.192-414.638q1.625.734,3.272,1.413l137.17-137.17" transform="translate(5162.108 666.293)"/>
    </g>
    <path id="react" d="M60,44.01A10.695,10.695,0,1,0,70.695,54.705,10.695,10.695,0,0,0,60,44.01ZM30.04,75.98l-2.36-.6C10.09,70.935,0,63.39,0,54.685S10.09,38.435,27.68,33.99l2.36-.6.665,2.34a117.649,117.649,0,0,0,6.815,17.89l.505,1.065-.505,1.065A116.534,116.534,0,0,0,30.7,73.645L30.04,75.98ZM26.585,39.455C13.215,43.21,5.01,48.955,5.01,54.685s8.2,11.47,21.575,15.23a124.749,124.749,0,0,1,5.91-15.23,123.761,123.761,0,0,1-5.91-15.23ZM89.96,75.98,89.3,73.635a116.784,116.784,0,0,0-6.82-17.885l-.505-1.065.505-1.065A117.1,117.1,0,0,0,89.3,35.73l.665-2.34,2.365.595C109.91,38.43,120,45.975,120,54.685s-10.09,16.25-27.675,20.7Zm-2.455-21.3a123.629,123.629,0,0,1,5.91,15.23c13.375-3.76,21.575-9.505,21.575-15.23s-8.205-11.47-21.575-15.23A123.941,123.941,0,0,1,87.505,54.685ZM26.55,39.43,25.885,37.1C20.94,19.665,22.44,7.175,30,2.815c7.415-4.28,19.32.775,31.8,13.58l1.7,1.745-1.7,1.745A117.76,117.76,0,0,0,49.685,34.72l-.675.965-1.175.1a118.283,118.283,0,0,0-18.925,3.05l-2.36.595ZM36.03,6.28a6.976,6.976,0,0,0-3.525.865c-4.97,2.865-5.85,12.825-2.425,26.265a125.608,125.608,0,0,1,16.165-2.505,124.236,124.236,0,0,1,10.26-12.72C48.7,10.59,41.32,6.28,36.03,6.28ZM83.975,108.09h0c-7.125,0-16.275-5.365-25.77-15.115L56.5,91.23l1.7-1.745A117.65,117.65,0,0,0,70.31,74.645l.675-.965,1.17-.1A118.149,118.149,0,0,0,91.09,70.535l2.36-.595.67,2.34C99.055,89.7,97.56,102.2,90,106.55a11.9,11.9,0,0,1-6.025,1.54ZM63.495,91.185c7.8,7.6,15.185,11.905,20.475,11.905h.005a6.958,6.958,0,0,0,3.52-.865c4.97-2.865,5.855-12.83,2.425-26.27a125.1,125.1,0,0,1-16.17,2.5A123.367,123.367,0,0,1,63.495,91.185ZM93.45,39.43l-2.36-.6a117.393,117.393,0,0,0-18.935-3.05l-1.17-.1-.675-.965A117.071,117.071,0,0,0,58.2,19.885L56.5,18.14l1.7-1.745C70.675,3.6,82.575-1.46,90,2.815c7.56,4.36,9.06,16.85,4.12,34.275l-.67,2.34Zm-19.7-8.525A124.692,124.692,0,0,1,89.92,33.41c3.43-13.44,2.545-23.4-2.425-26.265-4.94-2.855-14.225,1.52-24,11.04A124.247,124.247,0,0,1,73.75,30.905ZM36.03,108.09A11.9,11.9,0,0,1,30,106.55c-7.56-4.355-9.06-16.845-4.115-34.27l.66-2.34,2.36.6A118.015,118.015,0,0,0,47.83,73.58l1.175.1.67.965a117.981,117.981,0,0,0,12.11,14.84l1.7,1.745-1.7,1.745C52.3,102.725,43.145,108.09,36.03,108.09ZM30.08,75.955c-3.43,13.44-2.545,23.4,2.425,26.27,4.935,2.815,14.215-1.525,24-11.04A124.99,124.99,0,0,1,46.245,78.46,124.882,124.882,0,0,1,30.08,75.955ZM60,79.1c-4.115,0-8.345-.18-12.58-.53l-1.175-.1L45.57,77.5q-3.593-5.163-6.75-10.61T32.99,55.75l-.5-1.065.5-1.065q2.683-5.689,5.83-11.14c2.07-3.58,4.345-7.15,6.75-10.61l.675-.965,1.175-.1a148.924,148.924,0,0,1,25.165,0l1.17.1.67.965A150.028,150.028,0,0,1,87.01,53.62l.505,1.065L87.01,55.75A148,148,0,0,1,74.425,77.5l-.67.965-1.17.1c-4.235.35-8.47.53-12.585.53Zm-10.985-5.42a145.223,145.223,0,0,0,21.975,0,145.029,145.029,0,0,0,10.98-18.99A142.926,142.926,0,0,0,70.985,35.7a145.156,145.156,0,0,0-21.97,0A142.385,142.385,0,0,0,38.03,54.685a145.571,145.571,0,0,0,10.985,18.99Z" transform="translate(116 57.676)"/>
    <path id="redux" d="M34.179,33.259a3.42,3.42,0,0,0,3.08-3.6,3.548,3.548,0,0,0-3.51-3.386h-.125A3.514,3.514,0,0,0,30.238,29.9a3.751,3.751,0,0,0,1.015,2.369c-2.154,4.188-5.386,7.266-10.283,9.853a16.859,16.859,0,0,1-10.159,1.909,8.857,8.857,0,0,1-6.4-3.695,9.182,9.182,0,0,1-.524-9.728A14.519,14.519,0,0,1,8.2,25.592a20.466,20.466,0,0,1-.863-3.169C-1.782,28.952-.855,37.879,1.915,42.1c2.063,3.078,6.282,5.047,10.9,5.047a15.992,15.992,0,0,0,3.787-.4A24.089,24.089,0,0,0,34.15,33.323Zm10.99-7.7c-4.769-5.6-11.791-8.682-19.8-8.682H24.324a3.313,3.313,0,0,0-3.076-1.847h-.092a3.446,3.446,0,0,0-3.384,3.6,3.548,3.548,0,0,0,3.51,3.386h.152a3.474,3.474,0,0,0,3.078-2.156h1.14a23.844,23.844,0,0,1,13.332,4.093,16.878,16.878,0,0,1,6.65,8.006,8.5,8.5,0,0,1-.092,7.392,9.152,9.152,0,0,1-8.62,5.172,16.072,16.072,0,0,1-6.1-1.323c-.738.612-1.971,1.63-2.865,2.246a19.769,19.769,0,0,0,8.1,1.938c6,0,10.466-3.384,12.161-6.65,1.845-3.695,1.693-9.913-3.019-15.239l-.029.062Zm-31.833,8.8a3.543,3.543,0,0,0,3.51,3.386h.123a3.51,3.51,0,0,0-.092-7.018h-.125a1.324,1.324,0,0,0-.462.06,23,23,0,0,1-3.23-13.914,16.713,16.713,0,0,1,3.693-9.73c1.847-2.31,5.326-3.45,7.7-3.51,6.65-.125,9.422,8.16,9.635,11.454l3.078.923c-.709-10.1-6.987-15.4-12.991-15.4-5.635,0-10.836,4.1-12.932,10.1-2.862,8.006-.984,15.7,2.525,21.86A2.724,2.724,0,0,0,13.336,34.365Z" transform="translate(225 193.379)"/>
    <path id="graphql" d="M46.149,9.687,63.526,19.722a7.528,7.528,0,1,1,7.236,12.5V52.294A7.537,7.537,0,1,1,63.35,64.628L46.078,74.6a7.537,7.537,0,1,1-14.377.243L14.32,64.819A7.536,7.536,0,1,1,7.095,52.287l0-20.067a7.534,7.534,0,1,1,5.528-13.845,7.329,7.329,0,0,1,1.69,1.327L31.7,9.666a7.532,7.532,0,1,1,14.444.021Zm-1.813,3.088a2.794,2.794,0,0,1-.2.2l22.751,39.4c.092-.032.2-.056.289-.081v-20.1a7.518,7.518,0,0,1-5.486-9.113c.021-.085.042-.173.067-.254L44.335,12.775Zm-10.616.208-.211-.211L16.092,22.814a7.521,7.521,0,0,1-5.145,9.314c-.092.028-.18.049-.268.074V52.3l.3.081,22.751-39.4-.007,0Zm7.31,1.785a7.593,7.593,0,0,1-4.2,0l-22.747,39.4A7.639,7.639,0,0,1,16.2,57.833H61.66a7.575,7.575,0,0,1,2.123-3.676L41.029,14.768ZM44.5,71.907l17.3-9.993c-.053-.166-.1-.331-.134-.5H16.187l-.074.292L33.5,71.748a7.547,7.547,0,0,1,11,.158Z" transform="translate(308.68 108)"/>
    <path id="nodejs-plain" d="M112.357,30.25,68.352,4.725a9.522,9.522,0,0,0-9.2,0L14.8,30.25A9.473,9.473,0,0,0,10,38.3V89.28a9.539,9.539,0,0,0,4.847,8.058l11.692,6.667c5.609,2.763,7.164,2.763,9.716,2.763,8.308,0,12.622-5.023,12.622-13.785V42.651c0-.711.445-1.768-.254-1.768h-5.6c-.71,0-2.115,1.058-2.115,1.767V92.983c0,3.884-3.6,7.749-10.17,4.466L18.649,90.458a1.337,1.337,0,0,1-.674-1.177V38.3a1.644,1.644,0,0,1,.888-1.209L63.1,11.608a1.5,1.5,0,0,1,1.411,0l43.826,25.475c.42.252.353.72.353,1.215V89.28c0,.486.092.96-.322,1.194l-44,25.5a1.293,1.293,0,0,1-1.281,0l-11.282-6.728a1.1,1.1,0,0,0-1.077-.086,29.349,29.349,0,0,1-6.658,3.033c-.725.252-1.793.69.407,1.923l14.752,8.727a9.295,9.295,0,0,0,9.284,0l43.839-25.5a9.056,9.056,0,0,0,4.308-8.058V38.3A9.028,9.028,0,0,0,112.357,30.25ZM77.515,81.2c-11.69,0-14.264-3.225-15.123-9.038-.1-.626-.632-1.375-1.27-1.375H55.411c-.707,0-1.276.857-1.276,1.561,0,7.443,4.047,16.46,23.381,16.46,13.994,0,22.019-5.438,22.019-15.062,0-9.542-6.447-12.046-20.019-13.843C65.8,58.093,64.4,57.177,64.4,53.963c0-2.65,1.18-6.184,11.338-6.184,9.076,0,12.421,1.948,13.8,8.066a1.26,1.26,0,0,0,1.237.988h5.736a1.309,1.309,0,0,0,.936-.395,1.291,1.291,0,0,0,.335-.976c-.89-10.536-7.888-15.446-22.043-15.446-12.593,0-20.1,5.317-20.1,14.23,0,9.668,7.474,12.339,19.561,13.535,14.46,1.418,15.584,3.531,15.584,6.375C90.782,79.1,86.816,81.2,77.515,81.2Z" transform="translate(246 278.459)"/>
    <g id="original" transform="translate(399.7 242.399)">
      <path id="Path_58" data-name="Path 58" d="M98.3,66.263c-2.437.62-3.944.027-5.3-2-3.035-4.548-6.386-8.887-9.62-13.307-.417-.572-.85-1.133-1.389-1.844C78.171,54.27,74.349,59.187,70.764,64.3c-1.283,1.828-2.629,2.624-5.024,1.977L80.127,46.97,66.734,29.532c2.3-.449,3.9-.219,5.307,1.844,3.116,4.553,6.552,8.887,9.978,13.473,3.447-4.569,6.841-8.909,10.047-13.419,1.288-1.828,2.672-2.522,4.986-1.849-1.753,2.325-3.468,4.612-5.195,6.883-2.33,3.062-4.617,6.162-7.033,9.16-.86,1.069-.721,1.764.048,2.774C89.34,54.27,93.754,60.2,98.3,66.263Z" transform="translate(-30.002 -0.804)"/>
      <path id="Path_59" data-name="Path 59" d="M1.316,45.845c.385-1.929.641-3.9,1.176-5.788C5.7,28.605,18.845,23.843,27.877,30.941c5.291,4.163,6.605,10.031,6.344,16.647H4.4c-.449,11.869,8.1,19.036,18.988,15.381,3.821-1.283,6.071-4.275,7.2-8.016.572-1.876,1.518-2.17,3.281-1.635-.9,4.682-2.95,8.593-7.225,11.041-6.413,3.666-15.568,2.48-20.383-2.613C3.416,58.752,2.209,55.027,1.674,51c-.08-.641-.246-1.272-.374-1.908Q1.316,47.47,1.316,45.845Zm3.137-.8H31.4c-.176-8.583-5.521-14.68-12.826-14.734C10.561,30.251,4.8,36.2,4.453,45.049Z" transform="translate(0 0)"/>
    </g>
    <path id="webpack" d="M77.232,67.485,42.5,87.048V71.811L64.138,59.958l13.093,7.527Zm2.376-2.142V24.429L66.9,31.734v26.3l12.712,7.312Zm-74.9,2.142L39.446,87.048V71.811L17.8,59.958,4.71,67.485ZM2.333,65.342V24.429l12.711,7.3v26.3L2.333,65.342ZM3.82,21.782,39.446,1.715V16.447l-22.823,12.5-.174.1L3.82,21.782Zm74.3,0L42.5,1.715V16.447l22.823,12.5.174.1,12.628-7.263ZM39.446,68.345,18.094,56.657V33.5L39.446,45.771V68.345Zm3.049,0L63.847,56.657V33.5L42.5,45.771V68.345ZM19.54,30.815,40.975,19.077,62.41,30.815,40.975,43.14Z" transform="translate(128.667 256.285)"/>
    <path id="mongodb-plain-wordmark" d="M71.747,29.94a47.469,47.469,0,0,0-10.922-18.5,20.488,20.488,0,0,1-3.6-4.256c-.566-1.061-1.1-2.136-1.655-3.2l-.35-.88-.1.347a5.538,5.538,0,0,1-2.26,4.025c-1.383,1.24-2.669,2.587-4,3.888l-4.083,5.371-3.3,6.072-2.208,5.962-.066.092a55.258,55.258,0,0,0-2.108,12.239,37.28,37.28,0,0,0,.1,4.7,32.331,32.331,0,0,0,1.1,6.6,42.216,42.216,0,0,0,12.3,19.94c1.092,1.03,2.272,1.968,3.411,2.947l.5,1.731.469,2.687.224,2.8c0,.569-.026,1.141.008,1.708.009.146.2.28.306.42l.952.335.991.385-.17-2.493-.008-2.456.342-3.74.248-.814.711-1.26c.878-.705,1.818-1.347,2.618-2.132a60.546,60.546,0,0,0,4.183-4.416,33.185,33.185,0,0,0,4.284-6.584,50.405,50.405,0,0,0,2.111-4.844c.533-1.455.863-2.986,1.283-4.483l.11-.323a42.408,42.408,0,0,0,.694-12.235,38.524,38.524,0,0,0-2.118-9.64ZM54.589,73.288c.133-.665.3-1.326.417-1.993C54.887,71.962,54.723,72.623,54.589,73.288Zm2.946.459-.557-1.22.557,1.22.818.7ZM92.157,89.2a6.916,6.916,0,0,0-3.138-3.082,8.809,8.809,0,0,0-3.681-.855c-.959-.028-1.921.022-2.882.034-.853.01-1.706.025-2.559.017-1-.01-2.006-.041-3.008-.069a.327.327,0,0,0-.362.2c-.122.263-.266.516-.415.8l.167.053c.5.088,1,.163,1.492.262a1.038,1.038,0,0,1,.952,1.029c.043.764.06,1.53.058,2.3q-.019,4.545-.057,9.089a2.248,2.248,0,0,1-.059.6c-.063.217-.131.5-.293.605a2.506,2.506,0,0,1-.961.366c-.484.079-.565.1-.716.577l-.066.238c-.072.26-.034.31.237.313,1.554.017,3.107.051,4.659.046a23.084,23.084,0,0,0,4.245-.185,10.053,10.053,0,0,0,3.715-1.435,7.417,7.417,0,0,0,3.094-3.944,9.746,9.746,0,0,0,.4-4.174,7.7,7.7,0,0,0-.823-2.779Zm-2.722,8.33a5.117,5.117,0,0,1-3.843,2.852,6.215,6.215,0,0,1-3.279-.3,1.534,1.534,0,0,1-.94-1.528c-.02-.67-.028-1.341-.028-2.011q-.005-3.536,0-7.071c0-.742.015-1.486.027-2.23.009-.522.118-.7.628-.74,2.238-.188,4.374.053,6.148,1.629a6.2,6.2,0,0,1,1.98,3.644c.108.595.141,1.2.208,1.807a8.876,8.876,0,0,1-.9,3.946Zm18.787-2.553a3.992,3.992,0,0,0-2.329-2.179c-.359-.147-.729-.269-1.116-.412l.135-.086a8.836,8.836,0,0,0,1.244-.815,3.252,3.252,0,0,0,1.069-3.012,3.2,3.2,0,0,0-1.748-2.521,6.138,6.138,0,0,0-2.947-.67c-1.781,0-3.564.028-5.345.032-.614,0-1.228-.045-1.842-.053-.119,0-.3.028-.347.108a4.313,4.313,0,0,0-.334.7c-.058.14,0,.216.159.237.429.059.856.132,1.286.2a.95.95,0,0,1,.917.995l.008.354c0,1.858.007,3.716,0,5.574S97,97.143,96.979,99a5.316,5.316,0,0,1-.068.7.725.725,0,0,1-.6.667l-1.015.2c-.12.024-.293.021-.342.095a1.531,1.531,0,0,0-.316.95l.1.028,3.408.084.684,0c1.18-.014,2.361.009,3.539-.051a7.762,7.762,0,0,0,3.58-1.093,4.685,4.685,0,0,0,2.408-2.985,4.184,4.184,0,0,0-.143-2.611Zm-8.659-7.916c.005-.373.17-.535.541-.545a7.278,7.278,0,0,1,2.7.295,2.657,2.657,0,0,1,1.828,2.591,3.838,3.838,0,0,1-.169,1.361,2.1,2.1,0,0,1-1.891,1.423c-.476.048-.956.053-1.38.076L99.776,92.2c-.188-.007-.27-.09-.269-.283l.055-4.856ZM105.43,98.7a2.952,2.952,0,0,1-2.328,1.7,5.883,5.883,0,0,1-2.494-.109A1.386,1.386,0,0,1,99.63,99.1a6.085,6.085,0,0,1-.075-1.173c-.011-.583,0-1.793,0-1.793h-.012c0-.862,0-1.609,0-2.436,0-.178.029-.267.247-.26.774.023,1.551.036,2.325.066a4.445,4.445,0,0,1,1.95.56,3,3,0,0,1,1.64,2.318,4.041,4.041,0,0,1-.271,2.318Zm-85,.929.016-4.688a6.2,6.2,0,0,0-.318-2.066,3.155,3.155,0,0,0-4.224-2.02,9.3,9.3,0,0,0-2.29,1.274c-.415.3-.415.3-.715-.128a2.884,2.884,0,0,0-3.475-1.185,8.172,8.172,0,0,0-2.468,1.361c-.071.053-.213.113-.255.081a.368.368,0,0,1-.118-.272l.052-.833a4.634,4.634,0,0,0-.047-.535c-.341.118-.614.236-.9.305-.882.216-1.77.414-2.657.616-.215.049-.441.114-.462.36s.212.283.393.355c.381.153.76.316,1.136.482a.712.712,0,0,1,.433.732c-.006,1.453,0,2.9-.005,4.357,0,.591-.031,1.18-.058,1.771a.8.8,0,0,1-.71.874c-.269.071-.542.118-.813.182-.059.014-.161.052-.162.081a3.616,3.616,0,0,0,.018.767c.009.045.279.045.429.062l.1-.006c1.045-.016,2.09-.032,3.136-.043.554-.006,1.108,0,1.71,0l.065-.836c-.345-.063-.653-.11-.956-.177A.765.765,0,0,1,6.6,99.67l-.009-.684q-.008-2.66-.012-5.32a.705.705,0,0,1,.334-.616,4.972,4.972,0,0,1,1.549-.726,2.149,2.149,0,0,1,2.664,1.124,3.228,3.228,0,0,1,.289,1.013,35.437,35.437,0,0,1-.006,5.335.657.657,0,0,1-.58.671l-.89.188c-.072.018-.176-.03-.181.029-.02.246-.009.623-.009.623h.212l2.709.089c.742,0,1.486.088,2.227.107.133,0,.251.022.259-.131.012-.243,0-.472-.009-.715L15,100.632l-.763-.172c-.515-.122-.692-.317-.694-.838-.006-1.284.011-2.567,0-3.85q-.009-1.1-.082-2.2a.419.419,0,0,1,.172-.432,4.579,4.579,0,0,1,1.493-.72,2.314,2.314,0,0,1,3.12,2.2c.084,1.659.049,3.324.036,4.986,0,.579-.2.754-.766.909l-.2.051c-.584.14-.579.14-.544.76.011.194.065.244.272.239,1.189-.027,2.378-.034,3.567-.044.486,0,.973,0,1.5,0l.108-.807c-.465-.123-.893-.215-1.307-.35a.659.659,0,0,1-.493-.731Zm40.946-7.105a1.689,1.689,0,0,0,.356-1.721,1.936,1.936,0,0,1-1.318.629,4.1,4.1,0,0,1-1.937-.275,5.737,5.737,0,0,0-4.966.121,3.67,3.67,0,0,0-2.318,3.259,3.778,3.778,0,0,0,.8,2.75,3.445,3.445,0,0,0,1.5,1c.25.092.269.211.059.371-.153.118-.316.225-.48.328q-.525.33-1.057.65a.419.419,0,0,0-.21.532,2.26,2.26,0,0,0,1.354,1.444l.234.163-.2.2c-.629.51-1.282.991-1.884,1.531a1.706,1.706,0,0,0-.516,1.735,3.347,3.347,0,0,0,2.458,2.551,6.881,6.881,0,0,0,6.162-1.022,4.8,4.8,0,0,0,2.166-3.172,2.63,2.63,0,0,0-2.144-3.193c-1.026-.186-2.076-.24-3.114-.359a12.436,12.436,0,0,1-1.448-.2.684.684,0,0,1-.563-.741.817.817,0,0,1,.753-.636,6.539,6.539,0,0,0,2.231-.506,4.015,4.015,0,0,0,2.531-4.387c-.028-.272-.091-.541-.147-.859.6.1,1.216.253,1.7-.2Zm-5.7,9.5a9.806,9.806,0,0,1,2.473.316,1.9,1.9,0,0,1,1.526,1.418,2.308,2.308,0,0,1-1.228,2.521,4.766,4.766,0,0,1-2.88.437,3.5,3.5,0,0,1-2.232-1.012,1.92,1.92,0,0,1,0-2.8,2.527,2.527,0,0,1,2.344-.879Zm1.912-6a1.891,1.891,0,0,1-2.755,1.165,2.643,2.643,0,0,1-1.439-2.019c-.077-.335-.095-.682-.14-1.024a3.492,3.492,0,0,1,.31-1.4,2.08,2.08,0,0,1,3.119-.663,2.229,2.229,0,0,1,.805,1.048,4.309,4.309,0,0,1,.1,2.9Zm-8.079,4.538a6.883,6.883,0,0,1-.911-.2c-.524-.16-.588-.259-.594-.813-.016-1.545-.026-3.09-.043-4.634a6.928,6.928,0,0,0-.3-2.044,3.187,3.187,0,0,0-3.995-2.174,7.347,7.347,0,0,0-2.531,1.448l-.278.213v-.285c.018-.328.053-.657.051-.986a2.528,2.528,0,0,0-.1-.495c-.649.2-1.231.392-1.825.542s-1.2.252-1.806.374c-.3.06-.519.241-.514.447.008.291.248.347.459.434.381.156.761.314,1.138.481a.622.622,0,0,1,.376.631c-.019,2.008-.031,4.017-.06,6.026-.009.635-.169.8-.793.942l-.272.054c-.578.1-.594.122-.554.732l0,.1c-.007.235.1.31.337.308q2.3-.027,4.605-.021c.658,0,.729-.049.715-.725l-.031-.291c-.376-.063-.735-.109-1.087-.186a.575.575,0,0,1-.535-.607c-.032-.342-.042-.69-.046-1.035q-.026-2.368-.039-4.735a1.122,1.122,0,0,1,.437-1.023,3.569,3.569,0,0,1,1.832-.657,2.161,2.161,0,0,1,2.484,2.082c.091,1.684.064,3.374.085,5.061a2.536,2.536,0,0,1-.038.378.533.533,0,0,1-.4.5,7.254,7.254,0,0,1-.741.159c-.372.055-.379.053-.408.428l.009.253c.044.436.045.423.486.419q2.227-.018,4.452-.018c.621,0,.665-.028.67-.667l0-.152C49.749,100.65,49.676,100.584,49.507,100.557Zm20.738-9.763a6.2,6.2,0,0,0-4.434.628,4.816,4.816,0,0,0-2.619,3.3,6.593,6.593,0,0,0,.489,4.415,4.386,4.386,0,0,0,2.025,2.086,5.981,5.981,0,0,0,6.447-.854A5.666,5.666,0,0,0,74,95.832c-.018-.188-.036-.55-.086-.909A4.852,4.852,0,0,0,70.245,90.794Zm1.179,7.894a2.455,2.455,0,0,1-3.406,1.79A3.293,3.293,0,0,1,66.2,98.914a6.765,6.765,0,0,1-.584-5.33,2.4,2.4,0,0,1,2.568-1.815,3.207,3.207,0,0,1,2.506,1.465,5.857,5.857,0,0,1,.951,3.074c.011.177,0,.354,0,.531l.076.009c-.095.615-.14,1.242-.291,1.841ZM31.1,90.768a6.152,6.152,0,0,0-4.592.828,4.747,4.747,0,0,0-2.327,3.2,6.772,6.772,0,0,0,.3,3.857,4.553,4.553,0,0,0,1.34,1.964,5.231,5.231,0,0,0,4.516,1.076,5.527,5.527,0,0,0,3.507-2.038,6.05,6.05,0,0,0,1.183-3.674c-.049-.427-.061-.861-.152-1.278A4.731,4.731,0,0,0,31.1,90.768Zm1.336,7.915a2.461,2.461,0,0,1-3.4,1.8,3.561,3.561,0,0,1-2.087-2.049,6.988,6.988,0,0,1-.372-4.721,2.46,2.46,0,0,1,2.856-1.919,3.19,3.19,0,0,1,2.213,1.373A5.98,5.98,0,0,1,32.659,96.6v.253l.062.009c-.091.607-.135,1.224-.282,1.818Z" transform="translate(147.434 409.901)" fill-rule="evenodd"/>
    <path id="greensock" d="M41.951,82.511a6.046,6.046,0,0,1-2.828-1.259,2.421,2.421,0,0,1-.683-1.679,5.26,5.26,0,0,1,.834-2.4A7.587,7.587,0,0,0,40,75.57a12.169,12.169,0,0,1,.507-1.438l.314-.731.083-4.952c.045-2.724.128-5.262.183-5.648a17.034,17.034,0,0,1,.872-3.317l.29-.721-.424-.252a9.618,9.618,0,0,1-2-2.1,9.538,9.538,0,0,0-6.579-3.241q-1.445-.136-2.9-.2c-4.317-.2-6.779-1.1-9-3.283a9.948,9.948,0,0,1-2.872-6.331c-.476-3.786-1-5.734-1.966-7.31a7.017,7.017,0,0,0-.817-1.086l-.393-.39-.862.552c-.479.3-1.134.7-1.459.879a28.624,28.624,0,0,0-3.09,1.969,61.424,61.424,0,0,0-6.472,5.386c-.648.648-.99.921-1.128.9-.993-.148-.228-4.414,1.366-7.621a27.432,27.432,0,0,1,9.49-10.521A93.791,93.791,0,0,1,24.161,20.08a127.481,127.481,0,0,1,13.828-4.838,5.3,5.3,0,0,0,1.645-.655,4.084,4.084,0,0,1,2.348-.793,1.948,1.948,0,0,0,1.466-.483,1.615,1.615,0,0,1,1.855-.276l.531.19.645-.438.648-.438.931.021a2.988,2.988,0,0,0,1.334-.159c.393-.172.407-.193.517-.845a7.691,7.691,0,0,0,.128-2.945,34.17,34.17,0,0,1-.028-6.307c.2-.917.334-1.1,1.017-1.438A6.9,6.9,0,0,1,54.586.028c2.152,0,3.241.29,4.048,1.069.731.71.855,2.345.472,6.207a24.637,24.637,0,0,0-.19,4.29c.034.934.093,1.807.128,1.934.059.224.11.238.893.255a2.642,2.642,0,0,1,1.624.431,2.849,2.849,0,0,1,1.331,1.121c.021.069.138.072.359.01a.948.948,0,0,1,1.066.376c.176.224.286.269.7.269.552,0,.745.131,1.2.807a2.062,2.062,0,0,0,.848.69,5.822,5.822,0,0,1,2.172,2.255,5.574,5.574,0,0,1,.348,3.979c-.138.483-.138.5.145.972a4.6,4.6,0,0,1,.576,3.29l-.141.621.407.4c2.01,2.01,1.714,5.279-.741,8.207a4.7,4.7,0,0,0-.683,1.1,8.021,8.021,0,0,1-1.721,2.855l-.7.724h-.738a5.806,5.806,0,0,1-2.362-.569c-.259-.134-.276-.131-.224.034a42.382,42.382,0,0,1,.707,4.328,25.229,25.229,0,0,1-.138,6.307A9.828,9.828,0,0,1,62.948,54.7a1.223,1.223,0,0,0-.228,1.048,7.232,7.232,0,0,1-.4,2.8,9.629,9.629,0,0,0-.572,1.883c-.069.421-.069.424.228.424.4,0,.6.234.6.686,0,.207-.172,1.29-.386,2.414a25.246,25.246,0,0,0-.634,6.534c-.01,3.134-.014,3.11.7,3.576l1.6,1.041a21.966,21.966,0,0,0,4.4,2.262c2.252.89,2.562,1.117,2.562,1.876a.828.828,0,0,1-.345.728c-.869.838-2.566,1.024-5.99.662q-2.665-.254-5.345-.259c-4.707-.069-5.4-.231-6.017-1.407-.352-.672-.29-1.552.2-2.993q.329-.951.562-1.931a10.421,10.421,0,0,0-.648-5.531l-.638-1.786c-.641-1.821-.986-5.152-.607-5.9.069-.138.186-.172.5-.152l.41.034.331-.7a5.707,5.707,0,0,1,1.31-1.683l.983-.986-.048-.628a19.972,19.972,0,0,0-.952-3.534,4.233,4.233,0,0,0-.5.672A12.843,12.843,0,0,1,51.4,56.611c-.324.221-.593.472-.593.559a3.6,3.6,0,0,1-.693,1.569c-.366.493-.39.562-.334,1a16.283,16.283,0,0,1-.359,3.724,12.006,12.006,0,0,1-.886,2.293,27.635,27.635,0,0,0-1.81,4.448,19.084,19.084,0,0,0-.234,2.321,12.477,12.477,0,0,1-.207,1.99,1.371,1.371,0,0,0-.007.848,7.676,7.676,0,0,1,.093,1.414,6.493,6.493,0,0,0,.241,1.945,5.584,5.584,0,0,1,.252,2.745.9.9,0,0,1-.572.621,9.614,9.614,0,0,1-4.341.424Zm3.276-1.1a1.144,1.144,0,0,0,.869-.907,4.68,4.68,0,0,0-.3-1.055,20.19,20.19,0,0,1-.876-3.234c0-.186.014-.19.293-.041l.293.155-.007-.379a4.572,4.572,0,0,0-.221-1.017c-.255-.769-.29-.786-1.91-.876L42.258,74l-.4.39a3.552,3.552,0,0,0-.583.759c-.179.355-.248.879-.131,1a1.509,1.509,0,0,0,.586-.069,2.6,2.6,0,0,1,.534-.1,7.114,7.114,0,0,1-.662.521c-1.621,1.2-2.183,1.945-2.183,2.886,0,.986.917,1.752,2.372,1.979A13.448,13.448,0,0,0,45.227,81.414Zm21.91-1.6c.4-.49.355-.983-.159-1.552a4.217,4.217,0,0,0-1.007-.759,12.648,12.648,0,0,1-1.131-.672c-.3-.207-1.248-.759-2.11-1.241q-.927-.5-1.817-1.055l-.241-.19V70.635c0-3.655-.007-3.7-.2-3.648a17.613,17.613,0,0,1-4.49.338l-2.134-.034.3.752a15.19,15.19,0,0,1,.872,5.538,4.134,4.134,0,0,1-.252,1.7q-.156.427-.3.859c-.038.121.11.207.669.372a9.012,9.012,0,0,0,1.334.283l.614.062-.062.624a3.143,3.143,0,0,0,.186,1.676c.1.131.514.179,2.379.269,1.421.069,2.959.214,4.169.393,1.052.155,2.183.29,2.517.293.559.01.621-.01.859-.3ZM45.579,73.5a7.727,7.727,0,0,0,.162-1.624c.107-2.414.2-2.759,1.414-5.479a14.324,14.324,0,0,0,1.472-5.769l-.028-.876-.369.366c-.783.776-.245-.448.679-1.541a3.728,3.728,0,0,0,1.059-2.024c.048-.3.162-.448.621-.793a11.647,11.647,0,0,0,3.8-5.045c.193-.486.683-2.138,1.086-3.676A19.167,19.167,0,0,1,57,42.438c.138-.2.19-.234.155-.1a19.97,19.97,0,0,0-.448,2.2c-.11.659-.31,1.945-.441,2.855a18.186,18.186,0,0,1-.9,3.945l-.241.614.652,1.672a13.255,13.255,0,0,1,1.041,4.155l.034.662-.531.11A2.7,2.7,0,0,0,54.6,59.632c-.469.655-.717,1.2-.6,1.324a7.406,7.406,0,0,0,1.466.259,13.714,13.714,0,0,0,3.169.045,19.76,19.76,0,0,0,2-.193c.145-.052.286-.348.531-1.114a8.445,8.445,0,0,0,.6-3.621l-.055-1.093L62,54.876a8.664,8.664,0,0,0,1.379-4.1,38.83,38.83,0,0,0-1.086-10.559,18.4,18.4,0,0,1-.586-3.759v-.714l-.666.069a25.543,25.543,0,0,1-6.993-.172,34.028,34.028,0,0,1-3.9-1.134l-.41-.183-.059.466a7.218,7.218,0,0,1-.138.779c-.079.293-.048.352.452.848.621.621.814.952.814,1.386,0,.259-.155.476-.907,1.266a11.84,11.84,0,0,1-1.793,1.548l-.883.593-.366,1.3c-1.359,4.793-1.614,9.134-.724,12.255l.221.779-.431.534c-1.621,2.041-2.572,3.59-2.717,4.448-.028.172-.166.741-.3,1.266a29.693,29.693,0,0,0-.731,5.4q-.133,2.656-.359,5.307l-.059.524.672.207a10.712,10.712,0,0,0,1.266.3,5.555,5.555,0,0,0,1.89-.028ZM58.658,66.09a6.509,6.509,0,0,0,2.19-.379,1.258,1.258,0,0,0,.207-.621l.059-.51-.828.183a17.679,17.679,0,0,1-1.99.269,32.668,32.668,0,0,1-4.766-.138c-.524-.079-.528-.076-.355.61.128.517.155.531,1.534.638a30.756,30.756,0,0,0,3.948-.052Zm-.879-2.345a15.942,15.942,0,0,0,3.414-.586.716.716,0,0,0,.248-.479l.124-.717.062-.341-.331.069a21.142,21.142,0,0,1-4.9.407c-2.2,0-2.455-.021-3.034-.217a2.079,2.079,0,0,0-.71-.166,3.094,3.094,0,0,0-.017,1.362c.052.328.1.383.431.476a15.448,15.448,0,0,0,4.71.19Zm-25-12.148c3.448-.986,7.959-3.921,11.645-7.576,1.207-1.2,1.345-1.369,1.507-1.9l.221-.686c.024-.055-.193-.155-.476-.224-.745-.179-1.3-.6-1.307-.993,0-.228-.138-.455-.517-.879a2.534,2.534,0,0,1-.872-1.714l-.055-.545-.745-.545a38.905,38.905,0,0,0-3.545-1.948q-1.83-.895-3.583-1.934A7.087,7.087,0,0,1,32.3,29.39a1.176,1.176,0,0,0-.259-.476c-.114,0-3.138,2.931-4.434,4.3a40.279,40.279,0,0,0-6.772,9c-.345.672-.724,1.466-.834,1.762l-.207.541.252.9a11.472,11.472,0,0,0,.69,1.759,7.216,7.216,0,0,0,3.531,3.5A11.957,11.957,0,0,0,30.3,51.835a8.089,8.089,0,0,0,2.486-.241ZM5.565,39.794a62.3,62.3,0,0,1,9.221-6.49c2.507-1.493,12.183-6.334,16.641-8.324.807-.362,1.538-.693,1.621-.741a5.039,5.039,0,0,0,.521-1.272c.952-3,1.421-3.59,3.131-3.976.217-.048.269-.117.269-.341a4.871,4.871,0,0,1,.5-1.693c.172-.31.176-.328.017-.283-.093.031-.655.193-1.252.366a82.857,82.857,0,0,0-21.586,9.455C8.027,30.7,4.227,35.735,3.12,41.766l-.083.448.8-.8c.438-.438,1.217-1.169,1.728-1.621ZM66.52,40.932a6.515,6.515,0,0,0,2.059-3.11,2.8,2.8,0,0,1,.628-1.166,7.808,7.808,0,0,0,1.834-4.5c0-2.138-1.2-2.962-2.976-2.041a1.089,1.089,0,0,1-.438.166c-.1-.1.4-.586,1-.966.8-.517.955-.828.955-1.952a4.372,4.372,0,0,0-.776-2.528c-.241-.362-.338-.61-.3-.752l.248-.91a4.714,4.714,0,0,0-.3-3.438,3.709,3.709,0,0,0-3.083-2.076l-.776-.059.462.507a6.089,6.089,0,0,1,1.752,4.9c-.134.8-.266.966-1.045,1.283l-.448.183.052.617a5.412,5.412,0,0,1-.731,3.121,6.771,6.771,0,0,0-.541,1.362,3.409,3.409,0,0,0,1.666.841l.69.166-.431.138c-.555.183-.683.434-.686,1.369a3.081,3.081,0,0,0,.748,2.124,2.945,2.945,0,0,1,.5,1.062c.052.383.034.407-.276.521a5.242,5.242,0,0,1-1.069.172c-1.266.079-1.362.114-1.924.655-.517.493-.528.521-.528,1.059a7.271,7.271,0,0,0,.455,2.428,6.365,6.365,0,0,0,2,.976,1.876,1.876,0,0,0,1.286-.152ZM47.865,39.918A8.636,8.636,0,0,0,49.7,38.073c.224-.338.238-.4.124-.679a6.421,6.421,0,0,0-2.107-1.886,5.045,5.045,0,0,0-1.441-.414l-.848-.117-.531-.662a16.462,16.462,0,0,1-2.559-4.421,10.131,10.131,0,0,0-2.459-3.731,4.914,4.914,0,0,1-.71-.741c.041,0,.555.252,1.148.562.993.521,1.107.559,1.555.5,1.6-.193,3.01-2.038,3.531-4.621a5.424,5.424,0,0,1,.752-1.921c.014-.017.628.4,1.362.921,1.841,1.31,2.248,1.5,3.293,1.545a7.2,7.2,0,0,0,2.317-.324,22.133,22.133,0,0,1,7.241-.666,13.6,13.6,0,0,1,3.448,1.055c1.038.483,1.238.51,1.576.214.276-.241.279-.276.276-1.179a5.918,5.918,0,0,0-1.241-3.631,10.207,10.207,0,0,0-2.483-1.728q-.568-.3-1.128-.614c-.49-.286-1.066-.252-2.593.152a6.406,6.406,0,0,1-4.286-.062,6.024,6.024,0,0,0-3.524-.183,14.9,14.9,0,0,1-3.924-.141q-.567-.157-1.121-.359a6.107,6.107,0,0,0-2.834-.1,5.222,5.222,0,0,0-4.2,3c-.29.772-.252,1.134.145,1.383a3.745,3.745,0,0,1,1.434,1.862c0,.034-.193-.141-.431-.39a2.313,2.313,0,0,0-1.724-.866,2.138,2.138,0,0,0-1.9,1.248,13.261,13.261,0,0,0-.459,1.448A8.09,8.09,0,0,1,33.982,25.6a2.193,2.193,0,0,0-.5,2.245c.566,2.479,1.545,3.486,5.652,5.814a39.1,39.1,0,0,1,4.076,2.514c.617.459.634.483.579.838a2.639,2.639,0,0,0,1.4,2.4c.259.179.421.369.421.493,0,.248.676.586,1.183.586.276,0,.5-.117,1.079-.572Zm16.6-4.531c1.566.045,1.652-.066.81-1.038a2.605,2.605,0,0,1-.793-2.738l.128-.352-.548-.269a4.024,4.024,0,0,0-.562-.248q-.147.532-.272,1.069a24.641,24.641,0,0,0-.452,3.862c0,.079.131.045.362-.1.317-.19.483-.214,1.328-.19ZM59.234,35.3c.941-.052,1.917-.124,2.172-.159l.462-.062.059-1.559a12.655,12.655,0,0,1,1.355-5.593,7.088,7.088,0,0,0,.828-3.745c-.062-.421-.086-.448-.648-.693a14.81,14.81,0,0,0-3.221-.872,25.806,25.806,0,0,0-5.362.155c-.483.09-1.369.276-1.966.417A4.582,4.582,0,0,1,49.548,23a8.2,8.2,0,0,1-2.472-1.545c-.521-.486-.569-.51-.71-.348a2.813,2.813,0,0,0-.2,1.269,4.72,4.72,0,0,1-.759,2.679,2.869,2.869,0,0,0-.3.552,9.495,9.495,0,0,0,.91,1.021c1.721,1.793,2.566,2.255,3.924,2.152.448-.034.759-.021.759.034a5.271,5.271,0,0,1-1.245.986c-.166.086-.207.183-.179.39l.207,1.407c.124.814.221,1.183.345,1.293a18.773,18.773,0,0,0,3.034,1.559,9.7,9.7,0,0,0,3.186.852,15.507,15.507,0,0,0,3.179,0ZM48.1,33.828a11.92,11.92,0,0,0-.241-1.731c-.217-1.228-.338-1.672-.472-1.786-.1-.083-.6-.441-1.1-.8a18.976,18.976,0,0,1-1.852-1.559l-.934-.91-.49.259-.531.286a2.414,2.414,0,0,0,.221.607c.138.321.434,1.114.655,1.759a11.5,11.5,0,0,0,2.124,3.959l.428.555.793.124a8.407,8.407,0,0,1,1,.2c.193.072.217.041.276-.4a2.6,2.6,0,0,1,.117-.572ZM65.158,17.069c.69-.066.807-.172.507-.476a.94.94,0,0,0-.966-.041c-.234.107-.283.083-.645-.31-.379-.421-.4-.431-.876-.372-.431.052-.5.034-.552-.141a3.717,3.717,0,0,0-.621-.779,2.9,2.9,0,0,0-1.121-.793,2.1,2.1,0,0,0-2.1.155c-2.3,1.259-2.207,1.245-4.424.679a17.654,17.654,0,0,1-4.128-1.4,5.62,5.62,0,0,0-2.045-.69,1.627,1.627,0,0,0-1.434.483l-.276.228.248.441c.352.624.317.659-.214.207a3.063,3.063,0,0,0-1.672-.81,2.906,2.906,0,0,0-1.334.579c-.031.048.252.114.624.148a4.764,4.764,0,0,1,1.3.321,6.744,6.744,0,0,0,2.29.621,8.761,8.761,0,0,0,2.855-.183c.1-.086.4-.1,1.021-.052a14.251,14.251,0,0,1,3.114.666,5.366,5.366,0,0,0,3.272-.09,14.264,14.264,0,0,1,1.728-.379c.552-.059.662-.034,1.517.355a10.761,10.761,0,0,1,2.51,1.379c.4.345.448.355,1.424.262Zm-7.683-2.359.821-.428-.017-.845q-.02-.854-.076-1.707l-.059-.866-.821.634a3.915,3.915,0,0,1-1.169.7,17.617,17.617,0,0,1-3.779-.145,7.966,7.966,0,0,1-1-.893l-.759-.759-.01.448a6.71,6.71,0,0,1-.083.924c-.076.476-.069.49.448,1.148a5.771,5.771,0,0,1,.524.731c0,.262,3.89,1.469,4.766,1.483A2.875,2.875,0,0,0,57.475,14.711Zm-1.559-3.066c.972-.186,1.448-.89,1.8-2.666a24.578,24.578,0,0,0,.39-6.2c-.162-1.152-1.445-1.672-3.917-1.59-1.531.052-2.166.2-2.686.645-.324.276-.331.3-.472,1.576-.276,2.452.124,5.945.828,7.259a1.519,1.519,0,0,0,1.259.966,11,11,0,0,0,2.8.007Z" transform="translate(313.159 434.972)"/>
    <path id="d3js" d="M30.07,26.319A25.694,25.694,0,0,0,4.375.625H0V11.919H4.378a14.4,14.4,0,0,1,0,28.8H0V52.014H4.378A25.7,25.7,0,0,0,30.07,26.319ZM54.212,16.3A15.673,15.673,0,0,0,38.54.625H20.47A30.3,30.3,0,0,1,31.055,11.919H38.54a4.378,4.378,0,0,1,0,8.755H34.163a30.335,30.335,0,0,1,0,11.294H38.54a4.378,4.378,0,0,1,0,8.755H31.055A30.3,30.3,0,0,1,20.47,52.018H38.54A15.671,15.671,0,0,0,50.587,26.324,15.69,15.69,0,0,0,54.212,16.3Z" transform="translate(435 402.375)"/>
    <path id="nextjs" d="M51.955,65.629c-.26.137-.245.193.015.061a.665.665,0,0,0,.2-.137c0-.047-.006-.041-.219.076Zm.519-.274c-.123.1-.123.1.026.026a.42.42,0,0,0,.152-.1C52.652,65.223,52.617,65.238,52.474,65.355Zm.341-.207c-.123.1-.123.1.026.026a.42.42,0,0,0,.152-.1C52.993,65.016,52.958,65.031,52.815,65.148Zm.341-.2c-.123.1-.123.1.026.026a.42.42,0,0,0,.152-.1C53.334,64.812,53.3,64.827,53.157,64.943Zm.473-.306c-.239.152-.315.254-.1.137.152-.088.4-.274.356-.28a1.36,1.36,0,0,0-.254.143ZM32.707.013c-.152.015-.63.061-1.062.1A35.076,35.076,0,0,0,6.494,14.614,34.64,34.64,0,0,0,.316,29.907,26.836,26.836,0,0,0,0,35.006a26.853,26.853,0,0,0,.315,5.1A35.145,35.145,0,0,0,24.257,68.382a36.981,36.981,0,0,0,7.388,1.531,64.276,64.276,0,0,0,6.706,0A35.334,35.334,0,0,0,50.96,66.227c.6-.309.718-.391.636-.458q-2.877-3.8-5.7-7.642l-5.6-7.56L33.287,40.189q-3.5-5.209-7.062-10.372c-.026-.006-.055,4.606-.067,10.235-.02,9.859-.026,10.255-.152,10.489a1.237,1.237,0,0,1-.6.621c-.219.111-.411.131-1.444.131H22.778l-.315-.2a1.289,1.289,0,0,1-.458-.5l-.143-.309.015-13.718.02-13.723.213-.265a1.858,1.858,0,0,1,.508-.417c.28-.137.391-.152,1.575-.152,1.4,0,1.628.055,1.992.452q4.258,6.336,8.444,12.72c4.544,6.889,10.754,16.3,13.808,20.916l5.542,8.395.28-.184A35.993,35.993,0,0,0,61.449,58,34.827,34.827,0,0,0,69.686,40.11a26.835,26.835,0,0,0,.315-5.1,26.853,26.853,0,0,0-.315-5.1A35.145,35.145,0,0,0,45.745,1.635,36.612,36.612,0,0,0,38.459.109C37.8.042,33.279-.034,32.713.022Zm14.327,21.17a1.374,1.374,0,0,1,.691.808c.055.178.067,3.981.055,12.554l-.02,12.3-2.17-3.325L43.414,40.2V31.255c0-5.781.026-9.03.067-9.188a1.412,1.412,0,0,1,.677-.863c.28-.143.382-.158,1.458-.158,1.012,0,1.19.015,1.418.137Z" transform="translate(418.999 517.998)"/>
    <path id="angular" d="M31.778,36.514H44.9L37.923,21.931ZM37.946,1.026,4.553,12.778,9.829,56.528,37.981,72l28.3-15.682L71.553,12.57,37.946,1.026ZM29.061,42.712,24.967,52.955l-7.653.032L37.944,7.3,37.9,7.21h-.036V7.135l.036.075h.079l.069-.154V7.21h-.07l-.039.086L59.465,53.177,52.1,53.015l-4.532-10.47-9.677.046" transform="translate(272.447 568.974)"/>
    <g id="Group_12" data-name="Group 12" transform="translate(413.452 -2261.594) rotate(90)" opacity="0.7">
      <path id="path572" d="M538.061-352.948a2.369,2.369,0,0,1-2.37-2.37,2.369,2.369,0,0,1,2.37-2.37,2.371,2.371,0,0,1,2.37,2.37,2.371,2.371,0,0,1-2.37,2.37" transform="translate(2021.796 679.141)"/>
      <path id="path574" d="M538.061-328.393a2.368,2.368,0,0,1-2.37-2.37,2.369,2.369,0,0,1,2.37-2.369,2.371,2.371,0,0,1,2.37,2.369,2.37,2.37,0,0,1-2.37,2.37" transform="translate(2021.796 685.503)"/>
      <path id="path576" d="M513.719-352.948a2.371,2.371,0,0,1-2.371-2.37,2.371,2.371,0,0,1,2.371-2.37,2.37,2.37,0,0,1,2.37,2.37,2.37,2.37,0,0,1-2.37,2.37" transform="translate(2015.489 679.141)"/>
      <path id="path578" d="M513.719-328.393a2.37,2.37,0,0,1-2.371-2.37,2.371,2.371,0,0,1,2.371-2.369,2.37,2.37,0,0,1,2.37,2.369,2.369,2.369,0,0,1-2.37,2.37" transform="translate(2015.489 685.503)"/>
      <path id="path580" d="M489.376-352.948a2.37,2.37,0,0,1-2.369-2.37,2.37,2.37,0,0,1,2.369-2.37,2.37,2.37,0,0,1,2.37,2.37,2.37,2.37,0,0,1-2.37,2.37" transform="translate(2009.183 679.141)"/>
      <path id="path582" d="M489.376-328.393a2.369,2.369,0,0,1-2.369-2.37,2.369,2.369,0,0,1,2.369-2.369,2.37,2.37,0,0,1,2.37,2.369,2.369,2.369,0,0,1-2.37,2.37" transform="translate(2009.183 685.503)"/>
      <path id="path584" d="M465.035-352.948a2.37,2.37,0,0,1-2.37-2.37,2.37,2.37,0,0,1,2.37-2.37,2.37,2.37,0,0,1,2.37,2.37,2.37,2.37,0,0,1-2.37,2.37" transform="translate(2002.876 679.141)"/>
      <path id="path586" d="M465.035-328.393a2.369,2.369,0,0,1-2.37-2.37,2.37,2.37,0,0,1,2.37-2.369,2.37,2.37,0,0,1,2.37,2.369,2.369,2.369,0,0,1-2.37,2.37" transform="translate(2002.876 685.503)"/>
      <path id="path588" d="M440.692-352.948a2.371,2.371,0,0,1-2.37-2.37,2.371,2.371,0,0,1,2.37-2.37,2.37,2.37,0,0,1,2.37,2.37,2.37,2.37,0,0,1-2.37,2.37" transform="translate(1996.569 679.141)"/>
      <path id="path590" d="M440.692-328.393a2.37,2.37,0,0,1-2.37-2.37,2.371,2.371,0,0,1,2.37-2.369,2.37,2.37,0,0,1,2.37,2.369,2.369,2.369,0,0,1-2.37,2.37" transform="translate(1996.569 685.503)"/>
      <path id="path592" d="M416.351-352.948a2.37,2.37,0,0,1-2.37-2.37,2.37,2.37,0,0,1,2.37-2.37,2.37,2.37,0,0,1,2.37,2.37,2.37,2.37,0,0,1-2.37,2.37" transform="translate(1990.263 679.141)"/>
      <path id="path594" d="M416.351-328.393a2.369,2.369,0,0,1-2.37-2.37,2.37,2.37,0,0,1,2.37-2.369,2.37,2.37,0,0,1,2.37,2.369,2.369,2.369,0,0,1-2.37,2.37" transform="translate(1990.263 685.503)"/>
      <path id="path596" d="M392.008-352.948a2.37,2.37,0,0,1-2.37-2.37,2.37,2.37,0,0,1,2.37-2.37,2.37,2.37,0,0,1,2.37,2.37,2.37,2.37,0,0,1-2.37,2.37" transform="translate(1983.956 679.141)"/>
      <path id="path598" d="M392.008-328.393a2.369,2.369,0,0,1-2.37-2.37,2.37,2.37,0,0,1,2.37-2.369,2.37,2.37,0,0,1,2.37,2.369,2.369,2.369,0,0,1-2.37,2.37" transform="translate(1983.956 685.503)"/>
    </g>
  </g>
</svg>
